<svg width="17" height="17" viewBox="0 0 17 17" fill="none" xmlns="http://www.w3.org/2000/svg">
<path d="M7.16667 12.1667L13.0417 6.29167L11.875 5.125L7.16667 9.83333L4.79167 7.45833L3.625 8.625L7.16667 12.1667ZM8.33333 16.6667C7.18056 16.6667 6.09722 16.4478 5.08333 16.01C4.06945 15.5722 3.1875 14.9786 2.4375 14.2292C1.6875 13.4797 1.09389 12.5978 0.656668 11.5833C0.219446 10.5689 0.00055661 9.48555 1.05485e-06 8.33333C-0.000554501 7.18111 0.218334 6.09778 0.656668 5.08333C1.095 4.06889 1.68861 3.18694 2.4375 2.4375C3.18639 1.68806 4.06833 1.09444 5.08333 0.656667C6.09833 0.218889 7.18167 0 8.33333 0C9.485 0 10.5683 0.218889 11.5833 0.656667C12.5983 1.09444 13.4803 1.68806 14.2292 2.4375C14.9781 3.18694 15.5719 4.06889 16.0108 5.08333C16.4497 6.09778 16.6683 7.18111 16.6667 8.33333C16.665 9.48555 16.4461 10.5689 16.01 11.5833C15.5739 12.5978 14.9803 13.4797 14.2292 14.2292C13.4781 14.9786 12.5961 15.5725 11.5833 16.0108C10.5706 16.4492 9.48722 16.6678 8.33333 16.6667Z" fill="#22C55E"/>
</svg>
